<svg width="85" height="186" viewBox="0 0 85 186" fill="none" xmlns="http://www.w3.org/2000/svg">
<path d="M22.7126 124.494C22.7366 126.315 22.755 126.051 22.7727 126.447C22.8179 126.556 22.9019 126.76 22.6751 126.872C22.4483 126.984 22.3746 126.849 22.2426 126.794C22.0966 126.739 21.9573 126.667 21.827 126.581L21.7883 126.487L21.5708 126.357L20.7787 125.806L17.5432 123.481C15.3714 121.924 13.1932 120.352 10.8232 118.933C9.41263 118.059 7.9019 117.362 6.32449 116.855C5.82419 116.701 5.31087 116.594 4.79124 116.536C4.31211 116.525 3.83441 116.587 3.37408 116.718C2.4644 117.12 1.7522 117.869 1.39398 118.799C1.00171 119.734 0.747106 120.721 0.638227 121.73C0.551146 122.4 0.486541 123.037 0.444437 123.64C0.383433 124.947 0.387297 126.19 0.406673 127.427C0.537289 132.371 0.99848 137.014 1.46904 141.415C2.44389 150.166 3.68911 158.073 4.77903 164.635C5.86895 171.196 6.87608 176.456 7.65836 180.069C8.44064 183.682 8.96697 185.661 9.18204 185.609C9.33056 183.682 9.22727 181.743 8.87484 179.841L7.14978 164.205C6.43162 157.618 5.56203 149.739 4.84363 140.991C4.52331 136.602 4.2343 131.979 4.26277 127.244C4.26278 126.054 4.31589 124.861 4.39747 123.692C4.44603 123.104 4.5166 122.526 4.59364 121.963C4.63096 121.741 4.68668 121.522 4.76017 121.309C4.78472 121.209 4.83073 121.115 4.89501 121.035C4.95931 120.954 5.04032 120.889 5.13241 120.844C5.34598 120.86 5.55472 120.916 5.74745 121.011C6.63774 121.462 7.49508 121.977 8.31294 122.551C10.4033 123.866 12.4753 125.445 14.5848 127.027C15.6525 127.85 16.7293 128.65 17.8125 129.466L18.646 130.074L19.2737 130.492L20.0244 130.987C20.948 131.619 21.9641 132.101 23.0356 132.416C23.9457 132.701 24.9255 132.653 25.8011 132.281C26.2148 132.073 26.569 131.763 26.8305 131.38C27.0878 131.041 27.2809 130.657 27.4003 130.248C27.6461 129.126 27.7341 127.974 27.6618 126.826L27.6879 124.289L27.7305 116.106C27.8525 105.163 27.9721 94.0373 28.7441 83.3015C28.953 80.6339 29.1774 77.9598 29.5946 75.4441L29.7159 74.6801C29.7159 74.6801 29.8092 74.6415 29.8791 74.7225C31.7324 76.0808 33.5572 77.4142 35.3691 78.7163C37.4813 80.2606 39.5649 81.78 41.7757 83.2104C42.3245 83.5696 42.8974 83.9432 43.4945 84.3313L43.9359 84.6067L44.679 84.9955C45.2089 85.2808 45.7529 85.5388 46.3088 85.7686C47.3243 86.2509 48.4585 86.4197 49.5671 86.2537C50.0807 86.1609 50.5683 85.9595 50.9977 85.6629C51.4256 85.39 51.7631 84.9958 51.9678 84.53L52.7297 83.0253C52.9194 82.471 53.1027 81.901 53.273 81.2997L53.8075 79.3764L54.7594 75.9076L58.2694 62.9426C62.7985 46.6275 66.3434 34.8929 68.8213 26.4367C71.2993 17.9805 72.766 12.7613 73.5246 9.57368C73.6899 8.82803 73.8382 8.21754 73.9282 7.68609C74.109 8.12401 74.2964 8.57756 74.4772 9.01548C75.1358 10.8305 75.7686 12.583 76.3846 14.2509C77.6321 17.5803 78.8283 20.5647 79.902 23.0322C82.0337 27.9735 83.6923 30.9317 84.3428 30.6997C84.9932 30.4677 84.5552 27.1153 83.276 21.8584C82.6287 19.2331 81.7876 16.1387 80.7797 12.7287C80.2893 11.1005 79.724 9.24688 79.1587 7.39328C78.7905 6.50181 78.5558 5.53691 78.2369 4.58847L77.9527 3.90032L77.7202 3.33728C77.6233 3.10268 77.5264 2.86808 77.436 2.64912C77.0444 1.75349 76.3268 1.041 75.4305 0.658005C74.7356 0.367175 73.9805 0.252977 73.2325 0.325556C72.4845 0.398141 71.7667 0.655242 71.1428 1.07403L65.7688 4.72147L61.2268 7.91543C58.3426 9.96702 55.7941 11.8617 53.6863 13.5011C49.5639 16.7415 47.1082 19.0372 47.4742 19.5268C47.8402 20.0164 50.7909 18.7429 55.5757 16.1809C57.9008 14.8912 60.6562 13.2772 63.6774 11.4253L68.4134 8.48074L69.7653 7.61119L69.3225 8.65451C68.0369 11.7119 66.1467 16.8314 63.3463 25.256C60.5459 33.6807 56.8261 45.4325 52.2671 61.8515L48.7609 74.8699C48.4631 75.9998 48.1717 77.1454 47.8492 78.3038L47.4227 79.8713L46.9502 79.6087C46.4493 79.3213 45.9354 79.0026 45.4371 78.6775C43.3843 77.365 41.3199 75.8925 39.2116 74.4016C38.1698 73.6419 37.0968 72.895 36.0072 72.0635L34.3816 70.9041L33.4665 70.2751C32.9397 69.9251 32.4001 69.5439 31.8254 69.1221C30.9264 68.4074 29.8362 67.9778 28.6949 67.8886C28.1959 67.8635 27.699 67.9618 27.2477 68.175C26.778 68.3814 26.3578 68.686 26.015 69.0686C25.3198 69.8522 24.8018 70.778 24.4966 71.7827C24.3392 72.4153 24.1909 73.0257 24.0737 73.6234L23.9981 74.0574L23.9641 74.3277L23.8741 74.8592C23.4579 77.6857 23.2593 80.4222 23.0892 83.1837C22.5022 94.191 22.5832 105.362 22.6801 116.306C22.7203 119.048 22.7562 121.779 22.7878 124.5" fill="#593FFB"/>
</svg>
