<svg width="179" height="139" viewBox="0 0 179 139" fill="none" xmlns="http://www.w3.org/2000/svg">
<path d="M29.7282 69.5045C17.5301 78.5666 8.79362 90.6167 4.61491 101.909C2.69105 106.977 1.455 112.256 0.958924 117.526C0.546479 121.524 0.604966 125.478 1.1327 129.271C1.47525 131.699 2.03701 134.036 2.809 136.243C3.38876 137.743 3.7413 138.476 3.8388 138.433C3.9363 138.39 2.83308 135.167 2.26728 128.962C1.54813 120.308 3.04327 111.162 6.56704 102.661C10.7716 92.0342 19.3943 80.7996 31.1872 72.3965C37.4174 67.9438 44.0336 64.5642 50.8022 62.3768C58.2081 59.9445 65.7044 59.234 72.8557 60.2866C80.3657 61.4354 87.1676 64.9665 92.5984 70.5353C95.6028 73.5741 98.0443 77.313 99.8127 81.5833C96.8563 81.7451 93.7679 81.8752 90.5467 82.219C86.7037 82.5584 82.8312 83.4764 79.0211 84.9513C75.0345 86.5368 71.2452 89.0999 67.9195 92.4603C64.5126 95.842 61.706 100.023 59.7335 104.655C57.7611 109.287 56.68 114.236 56.5803 119.089C56.5456 124.545 58.1352 129.522 61.0732 133.158C62.7393 135.162 64.8921 136.522 67.321 137.104C69.6535 137.61 72.1296 137.517 74.5967 136.828C76.823 136.234 79.03 135.377 81.1837 134.273C83.2972 133.218 85.3656 131.982 87.3708 130.575C89.3582 129.218 91.2728 127.68 93.0945 125.978C94.9259 124.296 96.6435 122.43 98.2229 120.407C99.8078 118.394 101.215 116.2 102.415 113.872C103.669 111.569 104.689 109.128 105.448 106.612C106.981 101.559 107.537 96.3395 107.072 91.3793C106.953 90.0114 106.766 88.6656 106.514 87.3483C107.989 87.1944 109.464 86.9996 110.918 86.7352C117.208 85.5796 123.438 82.8308 129.178 78.6785C133.893 75.2508 138.258 71.0656 142.124 66.2658C147.945 58.9441 152.752 50.6192 156.308 41.7046C158.717 35.8074 160.772 29.7725 162.454 23.6522C163.811 18.8425 164.677 15.1908 165.27 12.4755C165.749 10.3299 166.074 8.69677 166.272 7.5052L166.623 8.60699C167.139 10.0022 167.788 11.3026 168.559 12.4865C169.823 14.4183 171.311 16.1145 172.989 17.5369C175.826 19.9091 177.875 20.8222 178.329 20.2848C178.782 19.7473 177.481 17.7165 175.41 14.7873C174.222 13.1567 173.139 11.4146 172.171 9.57268C171.638 8.5603 171.189 7.47811 170.831 6.33871L170.301 4.388C170.184 3.99346 170.06 3.57568 169.874 3.11273C169.656 2.56158 169.375 2.05793 169.037 1.61392C168.615 1.06972 168.082 0.663274 167.475 0.42305C166.868 0.182825 166.201 0.114628 165.522 0.223182C165.195 0.280478 164.869 0.370799 164.547 0.493125C164.22 0.629928 163.892 0.807659 163.732 0.887666L162.757 1.48493C161.544 2.23431 160.402 2.97024 159.321 3.71046C157.4 5.01308 155.525 6.432 153.703 7.96058C150.628 10.5745 148.953 12.5747 149.25 13.1635C149.548 13.7523 151.769 12.8081 155.154 11.0339C156.854 10.1496 158.833 9.04779 161.034 7.82937L163.082 6.71423C162.619 7.8832 162.1 9.48032 161.405 11.6839C160.562 14.3822 159.439 17.9117 157.951 22.6077C156.104 28.4353 153.976 34.1808 151.578 39.8125C148.135 48.0396 143.587 55.7123 138.143 62.4785C134.633 66.7653 130.689 70.5065 126.439 73.5799C121.431 77.1934 115.996 79.5795 110.512 80.5727C108.647 80.941 106.741 81.1291 104.758 81.3074C102.681 75.5875 99.56 70.6371 95.5863 66.7603C89.528 60.7357 81.9778 56.9791 73.6757 55.8586C65.9852 54.8622 57.9446 55.7693 50.0277 58.5266C42.9515 60.9847 36.0601 64.6996 29.6029 69.5369L29.7282 69.5045ZM102.353 92.5439C102.705 96.7709 102.189 101.206 100.848 105.488C100.198 107.594 99.3267 109.633 98.2562 111.55C97.1869 113.515 95.9492 115.362 94.5676 117.056C93.1857 118.796 91.6855 120.398 90.0883 121.838C88.4662 123.325 86.764 124.666 84.9993 125.847C83.2244 127.05 81.3959 128.1 79.5303 128.989C77.7027 129.911 75.832 130.625 73.946 131.122C72.2949 131.672 70.6221 131.748 69.0738 131.343C67.5256 130.937 66.149 130.063 65.0644 128.796C62.9724 126.082 61.8609 122.423 61.9168 118.435C61.9091 116.498 62.1495 114.522 62.6297 112.572C63.0888 110.595 63.7489 108.654 64.5942 106.795C66.2539 103.116 68.5214 99.7894 71.2354 97.0502C73.9494 94.3109 77.0433 92.2267 80.297 90.9458C83.6319 89.6922 87.0165 88.9125 90.3747 88.6239C94.1316 88.2258 97.8945 88.1373 101.637 87.9382C101.962 89.4521 102.194 91.0087 102.332 92.597" fill="#FF698D"/>
</svg>
