<svg width="90" height="123" viewBox="0 0 90 123" fill="none" xmlns="http://www.w3.org/2000/svg">
<path d="M83.8613 121.992C78.8497 121.017 73.997 119.391 69.4271 117.155C66.4782 115.784 63.2705 114.13 59.9119 112.264C56.305 110.286 52.8438 108.059 49.5533 105.6C47.7866 104.27 46.1114 102.824 44.5384 101.272C42.8857 99.6805 41.3823 97.9424 40.0463 96.0786C38.6551 94.1848 37.4965 92.1307 36.5945 89.959C35.6518 87.7787 35.0131 85.4768 34.696 83.1167L34.6542 82.7246C34.7877 82.7464 34.925 82.7945 35.0653 82.8259C40.3728 83.9863 45.9387 83.3948 50.9258 81.1403C53.4432 79.9699 55.7017 78.3049 57.5639 76.2467C59.5159 74.0922 60.8872 71.483 61.5468 68.6684C61.9397 67.1943 62.0948 65.6704 62.0064 64.1542C61.9199 62.4542 61.4449 60.8014 60.6174 59.3214C59.7773 57.9052 58.644 56.6854 57.2914 55.7419C55.9388 54.7983 54.3975 54.1523 52.7682 53.846C49.8162 53.2926 46.7486 53.789 44.0989 55.2489C41.6647 56.572 39.51 58.3561 37.7578 60.4992C36.0167 62.5918 34.6069 64.935 33.5782 67.4461C32.3015 70.5827 31.5682 73.9057 31.4098 77.2725C30.7176 76.9573 30.0478 76.5963 29.4048 76.192C25.5939 73.8342 22.3686 70.6558 19.9624 66.8865C17.6946 63.3873 15.9766 59.5594 14.8668 55.5329C13.8793 52.022 13.3277 48.3984 13.2242 44.7426C13.2081 41.6327 13.4738 38.5239 14.0181 35.454C14.8198 30.6432 16.148 25.9273 17.9787 21.3907C19.1823 18.3382 20.6155 15.3778 22.266 12.535C23.6059 10.262 24.6545 8.66072 25.4987 7.43706C26.2133 6.3635 26.7135 5.67452 27.0771 5.12593L27.0752 6.10167C27.0696 8.88336 27.1114 11.3988 27.1978 13.5191C27.3802 17.7527 27.6819 20.4475 28.1874 20.4529C28.6928 20.4583 29.1761 17.9343 29.6099 13.7584C29.8366 11.6634 30.0382 9.17915 30.2135 6.40803L30.2803 5.35724C30.3139 4.90527 30.3084 4.45178 30.2639 4.00179C30.2305 3.71347 30.172 3.42892 30.089 3.15134C29.9842 2.79811 29.8302 2.46178 29.6316 2.15207C29.2226 1.51421 28.6179 1.02567 27.9056 0.757528C26.9768 0.472964 26 0.365949 25.0264 0.442076L22.7623 0.432411C10.1998 0.60966 0.050023 1.50575 0.127631 2.46877C0.205237 3.43179 10.4488 4.08356 23.0181 3.91599L24.6728 3.87764C24.1492 4.35315 23.6573 4.86212 23.2002 5.4012C21.8045 6.98077 20.5299 8.66192 19.3875 10.4302C17.4771 13.3218 15.8358 16.3787 14.4845 19.5623C12.4219 24.3106 10.925 29.2765 10.0247 34.3575C9.41888 37.699 9.12688 41.0853 9.15251 44.4723C9.24363 48.5131 9.84289 52.5197 10.9363 56.3988C12.1715 60.8867 14.0935 65.1503 16.6353 69.0408C19.4338 73.3915 23.1855 77.049 27.6143 79.7443C28.8871 80.5262 30.2379 81.1768 31.6461 81.6861C31.6976 82.2168 31.7492 82.7474 31.837 83.2669C32.2307 85.9065 32.9803 88.4766 34.0655 90.9079C35.1083 93.2696 36.4256 95.4986 37.9908 97.5499C39.4657 99.5213 41.1192 101.353 42.9311 103.022C44.6051 104.61 46.3843 106.084 48.2571 107.435C51.6772 109.885 55.2775 112.077 59.0289 113.995C62.5061 115.806 65.7793 117.365 68.8486 118.67C73.5844 120.78 78.6168 122.178 83.783 122.818C85.1556 122.969 86.5392 123.014 87.9216 122.954C88.8609 122.884 89.3153 122.839 89.3399 122.749C89.3645 122.658 87.3517 122.587 83.8476 121.973L83.8613 121.992ZM35.713 78.702C35.3156 78.6201 34.9241 78.5049 34.5327 78.3896C34.6503 75.1307 35.371 71.9132 36.6586 68.8988C37.6041 66.6997 38.8799 64.6528 40.4418 62.8291C41.958 61.0254 43.8131 59.5327 45.9007 58.4367C47.879 57.3845 50.1548 57.0472 52.3358 57.4827C53.4097 57.6839 54.4259 58.1086 55.3181 58.7292C56.2104 59.3497 56.9587 60.1521 57.5144 61.0842C58.4461 63.074 58.5954 65.3478 57.9333 67.4626C57.3819 69.6883 56.2687 71.744 54.6998 73.4337C53.1298 75.0991 51.2426 76.4367 49.151 77.3662C47.0562 78.3118 44.8243 78.911 42.5443 79.1398C40.2591 79.384 37.9541 79.2425 35.7268 78.7214" fill="#4F1F3C" fill-opacity="0.3"/>
</svg>
