<svg width="16" height="18" viewBox="0 0 16 18" fill="none" xmlns="http://www.w3.org/2000/svg">
<path fill-rule="evenodd" clip-rule="evenodd" d="M11.6758 1.30726L11.6766 1.93195C13.9721 2.11186 15.4885 3.67608 15.491 6.07487L15.5 13.0964C15.5033 15.7117 13.8602 17.3209 11.2265 17.3251L4.79327 17.3334C2.17603 17.3367 0.512378 15.6892 0.509087 13.0664L0.500036 6.12735C0.496745 3.71272 1.95964 2.15267 4.25517 1.94194L4.25435 1.31726C4.25353 0.950774 4.52504 0.675079 4.88706 0.675079C5.24908 0.674246 5.5206 0.949108 5.52142 1.31559L5.52224 1.89863L10.4095 1.89197L10.4087 1.30893C10.4079 0.942445 10.6794 0.667583 11.0414 0.66675C11.3952 0.665917 11.6749 0.940779 11.6758 1.30726ZM1.76799 6.38472L14.2248 6.36806V6.07654C14.1894 4.28577 13.2909 3.34624 11.6783 3.20631L11.6791 3.84765C11.6791 4.20581 11.4002 4.48983 11.0464 4.48983C10.6844 4.49066 10.412 4.20747 10.412 3.84932L10.4112 3.17466L5.52395 3.18132L5.52477 3.85515C5.52477 4.21414 5.25408 4.49733 4.89206 4.49733C4.53004 4.49816 4.2577 4.2158 4.2577 3.85682L4.25688 3.21547C2.65247 3.37622 1.7647 4.31908 1.76716 6.12568L1.76799 6.38472ZM10.7 10.1703V10.1794C10.7083 10.5626 11.0209 10.8533 11.4002 10.8449C11.7705 10.8358 12.0658 10.5184 12.0576 10.1353C12.0403 9.7688 11.7433 9.46979 11.3739 9.47062C10.9954 9.47895 10.6992 9.78713 10.7 10.1703ZM11.3796 13.9101C11.0012 13.9018 10.6959 13.5861 10.6951 13.2029C10.6869 12.8198 10.9905 12.5025 11.3689 12.4933H11.3772C11.7639 12.4933 12.0774 12.809 12.0774 13.2004C12.0782 13.5919 11.7655 13.9093 11.3796 13.9101ZM7.31016 10.1837C7.32662 10.5668 7.6401 10.8659 8.01857 10.8492C8.38882 10.8317 8.68419 10.5152 8.66774 10.1321C8.65869 9.75725 8.35426 9.46573 7.98401 9.46656C7.60554 9.48322 7.30934 9.80056 7.31016 10.1837ZM8.02187 13.8726C7.6434 13.8893 7.33074 13.5903 7.31347 13.2071C7.31347 12.824 7.60884 12.5075 7.98732 12.49C8.35756 12.4892 8.66281 12.7807 8.67104 13.1547C8.68832 13.5386 8.39212 13.8551 8.02187 13.8726ZM3.92044 10.2128C3.93689 10.596 4.25037 10.8958 4.62884 10.8783C4.99909 10.8617 5.29447 10.5443 5.27719 10.1612C5.26896 9.78639 4.96454 9.49487 4.59347 9.4957C4.21499 9.51236 3.91961 9.8297 3.92044 10.2128ZM4.63201 13.8768C4.25354 13.8942 3.94088 13.5944 3.9236 13.2113C3.92278 12.8281 4.21898 12.5108 4.59745 12.4941C4.9677 12.4933 5.27295 12.7848 5.28118 13.1596C5.29846 13.5428 5.00308 13.8601 4.63201 13.8768Z" fill="#FB3F6C"/>
</svg>
